<svg  viewBox="0 0 155 32" fill="none" xmlns="http://www.w3.org/2000/svg">
<circle cx="16" cy="16" r="16" fill="white"/>
<path d="M15.8998 11.3269L21.4223 16.8L22.9998 15.2366L15.8998 8.20004L8.7998 15.2366L10.3773 16.8L15.8998 11.3269Z" fill="black"/>
<path d="M15.8998 18.1269L21.4223 23.6L22.9998 22.0366L15.8998 15L8.7998 22.0366L10.3773 23.6L15.8998 18.1269Z" fill="black"/>
<path d="M44 22.8026V9.19736H52.7159V11.2634H46.4646V14.957H52.118V17.0231H46.4646V22.8026H44Z" fill="white"/>
<path d="M70.1115 16C70.1115 17.4659 69.8369 18.7215 69.2877 19.7667C68.743 20.8075 67.999 21.6046 67.0556 22.1582C66.1167 22.7118 65.0516 22.9886 63.8602 22.9886C62.6689 22.9886 61.6016 22.7118 60.6582 22.1582C59.7193 21.6002 58.9753 20.8008 58.4261 19.7601C57.8814 18.7149 57.609 17.4615 57.609 16C57.609 14.5341 57.8814 13.2807 58.4261 12.2399C58.9753 11.1948 59.7193 10.3954 60.6582 9.84175C61.6016 9.28815 62.6689 9.01135 63.8602 9.01135C65.0516 9.01135 66.1167 9.28815 67.0556 9.84175C67.999 10.3954 68.743 11.1948 69.2877 12.2399C69.8369 13.2807 70.1115 14.5341 70.1115 16ZM67.6336 16C67.6336 14.9681 67.4719 14.0978 67.1486 13.3892C66.8298 12.6762 66.3869 12.1381 65.82 11.7749C65.2531 11.4073 64.5999 11.2235 63.8602 11.2235C63.1206 11.2235 62.4674 11.4073 61.9005 11.7749C61.3336 12.1381 60.8885 12.6762 60.5652 13.3892C60.2463 14.0978 60.0869 14.9681 60.0869 16C60.0869 17.0319 60.2463 17.9044 60.5652 18.6174C60.8885 19.326 61.3336 19.8641 61.9005 20.2317C62.4674 20.5949 63.1206 20.7765 63.8602 20.7765C64.5999 20.7765 65.2531 20.5949 65.82 20.2317C66.3869 19.8641 66.8298 19.326 67.1486 18.6174C67.4719 17.9044 67.6336 17.0319 67.6336 16Z" fill="white"/>
<path d="M75.4348 22.8026V9.19736H80.5367C81.5819 9.19736 82.4588 9.37894 83.1674 9.7421C83.8805 10.1053 84.4186 10.6146 84.7817 11.27C85.1493 11.9211 85.3331 12.6806 85.3331 13.5487C85.3331 14.4211 85.1471 15.1785 84.7751 15.8206C84.4075 16.4584 83.865 16.9522 83.1475 17.3021C82.4301 17.6475 81.5487 17.8202 80.5035 17.8202H76.8697V15.7741H80.1714C80.7825 15.7741 81.283 15.69 81.6727 15.5217C82.0625 15.349 82.3503 15.0987 82.5363 14.771C82.7268 14.4388 82.822 14.0314 82.822 13.5487C82.822 13.0659 82.7268 12.654 82.5363 12.313C82.3459 11.9676 82.0558 11.7063 81.6661 11.5291C81.2763 11.3475 80.7737 11.2568 80.1581 11.2568H77.8994V22.8026H75.4348ZM82.4633 16.6377L85.8314 22.8026H83.0811L79.7728 16.6377H82.4633Z" fill="white"/>
<path d="M93.4582 22.8026L89.6184 9.19736H92.269L94.7204 19.1954H94.8466L97.464 9.19736H99.8755L102.5 19.202H102.619L105.07 9.19736H107.721L103.881 22.8026H101.45L98.7262 13.2564H98.6199L95.8896 22.8026H93.4582Z" fill="white"/>
<path d="M112.892 22.8026H110.261L115.051 9.19736H118.093L122.89 22.8026H120.259L116.625 11.9875H116.519L112.892 22.8026ZM112.978 17.4681H120.153V19.4478H112.978V17.4681Z" fill="white"/>
<path d="M127.675 22.8026V9.19736H132.777C133.822 9.19736 134.699 9.37894 135.407 9.7421C136.121 10.1053 136.659 10.6146 137.022 11.27C137.389 11.9211 137.573 12.6806 137.573 13.5487C137.573 14.4211 137.387 15.1785 137.015 15.8206C136.648 16.4584 136.105 16.9522 135.388 17.3021C134.67 17.6475 133.789 17.8202 132.744 17.8202H129.11V15.7741H132.411C133.023 15.7741 133.523 15.69 133.913 15.5217C134.302 15.349 134.59 15.0987 134.776 14.771C134.967 14.4388 135.062 14.0314 135.062 13.5487C135.062 13.0659 134.967 12.654 134.776 12.313C134.586 11.9676 134.296 11.7063 133.906 11.5291C133.516 11.3475 133.014 11.2568 132.398 11.2568H130.139V22.8026H127.675ZM134.703 16.6377L138.071 22.8026H135.321L132.013 16.6377H134.703Z" fill="white"/>
<path d="M147.445 22.8026H142.835V9.19736H147.538C148.889 9.19736 150.049 9.46973 151.019 10.0145C151.994 10.5548 152.742 11.332 153.265 12.3462C153.787 13.3604 154.049 14.5739 154.049 15.9867C154.049 17.4039 153.785 18.6218 153.258 19.6405C152.736 20.6591 151.98 21.4408 150.993 21.9855C150.01 22.5303 148.827 22.8026 147.445 22.8026ZM145.3 20.6702H147.326C148.274 20.6702 149.064 20.4974 149.697 20.152C150.331 19.8021 150.807 19.2817 151.126 18.5908C151.445 17.8955 151.604 17.0275 151.604 15.9867C151.604 14.9459 151.445 14.0823 151.126 13.3959C150.807 12.705 150.335 12.189 149.711 11.848C149.091 11.5026 148.32 11.3298 147.399 11.3298H145.3V20.6702Z" fill="white"/>
</svg>
